<?xml version="1.0" encoding="UTF-8"?><svg xmlns="http://www.w3.org/2000/svg" xmlns:xlink="http://www.w3.org/1999/xlink" viewBox="0 0 100 100"><defs><style>.cls-1{fill:#fff;}.cls-2{fill:#ff7e3e;}.cls-3{fill:url(#_未命名漸層_269);}</style><linearGradient id="_未命名漸層_269" x1="50" y1="-.43" x2="50" y2="98.96" gradientUnits="userSpaceOnUse"><stop offset="0" stop-color="#0db873"/><stop offset="1" stop-color="#22b173"/></linearGradient></defs><g id="_背景"><rect class="cls-3" width="100" height="100" rx="16" ry="16"/></g><g id="logo"><polygon class="cls-1" points="86.58 31.71 68.29 31.71 68.29 13.42 31.71 13.42 31.71 31.71 13.42 31.71 13.42 68.29 31.71 68.29 31.71 86.58 68.29 86.58 68.29 68.29 86.58 68.29 86.58 31.71"/></g><g id="_醫療"><circle class="cls-2" cx="50" cy="50" r="15.25"/><ellipse class="cls-2" cx="50" cy="27.89" rx="1.91" ry="3.81"/><ellipse class="cls-2" cx="38.95" cy="30.86" rx="1.91" ry="3.81" transform="translate(-10.21 23.61) rotate(-30)"/><ellipse class="cls-2" cx="30.86" cy="38.95" rx="1.91" ry="3.81" transform="translate(-18.3 46.2) rotate(-60)"/><ellipse class="cls-2" cx="27.89" cy="50" rx="3.81" ry="1.91"/><ellipse class="cls-2" cx="30.86" cy="61.05" rx="3.81" ry="1.91" transform="translate(-26.39 23.61) rotate(-30)"/><ellipse class="cls-2" cx="38.95" cy="69.14" rx="3.81" ry="1.91" transform="translate(-40.41 68.3) rotate(-60)"/><ellipse class="cls-2" cx="50" cy="72.11" rx="1.91" ry="3.81"/><ellipse class="cls-2" cx="61.05" cy="69.14" rx="1.91" ry="3.81" transform="translate(-26.39 39.79) rotate(-30)"/><ellipse class="cls-2" cx="69.14" cy="61.05" rx="1.91" ry="3.81" transform="translate(-18.3 90.41) rotate(-60)"/><ellipse class="cls-2" cx="72.11" cy="50" rx="3.81" ry="1.91"/><ellipse class="cls-2" cx="69.14" cy="38.95" rx="3.81" ry="1.91" transform="translate(-10.21 39.79) rotate(-30)"/><ellipse class="cls-2" cx="61.05" cy="30.86" rx="3.81" ry="1.91" transform="translate(3.8 68.3) rotate(-60)"/></g></svg>